<svg height="512pt" viewBox="0 -55 512.00006 512" width="512pt" xmlns="http://www.w3.org/2000/svg"><path d="m494.933594 341.332031-1.878906.003907-6.65625-26.652344v-180.828125c-.03125-7.046875-4.355469-13.355469-10.914063-15.925781l-11.574219-4.464844-2.585937-37.832032c-.640625-8.941406-8.0625-15.871093-17.023438-15.898437h-.566406v-25.601563c-.011719-9.421874-7.644531-17.054687-17.066406-17.066406h-273.066407c-.011718-9.421875-7.648437-17.0546872-17.066406-17.066406h-85.335937c-9.421875.0117188-17.054688 7.644531-17.066407 17.066406v17.066406h-5c-4.523437.011719-8.859374 1.808594-12.066406 5l-12.066406 12.066407c-3.210938 3.195312-5.0117188 7.539062-5 12.066406v61.199219c-.0117188 4.53125 1.789062 8.875 5 12.070312l12.066406 12.066406c3.207032 3.191407 7.542969 4.984376 12.066406 5h5v93.863282c.042969.308594.105469.617187.1875.917968.023438.253907-.070312.503907-.019531.757813l6.5625 32.824219c-3.890625.792968-6.695312 4.199218-6.730469 8.167968v24.554688l-6.664062 26.644531h-1.867188c-9.421874.011719-17.058593 7.648438-17.066406 17.066407v25.601562c.007813 9.421875 7.644532 17.054688 17.066406 17.066406h469.332032c9.421875-.011718 17.054687-7.644531 17.066406-17.066406v-25.601562c-.011719-9.417969-7.644531-17.054688-17.066406-17.066407zm-132.832032-17.066406h-202.722656l-10.238281-25.597656h228.320313zm-225.566406-42.664063h-78.34375l-5.121094-25.601562h416.261719v25.601562zm59.730469-174.203124-12.066406 12.066406h-30.597657v-51.199219h30.597657l12.066406 12.066406zm59.734375 80.335937v17.066406h-68.265625c-4.714844 0-8.535156 3.820313-8.535156 8.53125 0 4.714844 3.820312 8.535157 8.535156 8.535157h68.265625v17.066406h-204.800781v-51.199219zm162.132812 0h51.199219v51.199219h-110.933593v-17.066406h59.734374c4.714844 0 8.535157-3.820313 8.535157-8.535157 0-4.710937-3.820313-8.53125-8.535157-8.53125h-59.734374v-17.066406zm-93.867187-51.199219h-34l.335937-21.363281 16.597657-12.746094 17.066406 13.074219zm-42.664063 17.066406h59.730469v85.332032h-68.265625v-85.332032zm165.273438-38.976562c.46875 6.609375 4.707031 12.359375 10.882812 14.761719l11.574219 4.46875v36.8125h-42.664062v-93.867188h17.625zm-20.207031-80.492188v25.601563c-9.421875.011719-17.058594 7.644531-17.066407 17.066406v93.867188h-51.203124v-17.066407h8.535156c4.710937 0 8.53125-3.820312 8.53125-8.535156 0-4.710937-3.820313-8.53125-8.53125-8.53125h-25.601563v-21.035156c.054688-5.519531-2.617187-10.707031-7.140625-13.871094l-17.523437-13.429687c-5.917969-3.894531-13.613281-3.761719-19.394531.328125l-16.605469 12.773437c-4.753907 3.160157-7.609375 8.492188-7.601563 14.199219v21.035156h-25.601562c-4.710938 0-8.53125 3.820313-8.53125 8.53125 0 4.714844 3.820312 8.535156 8.53125 8.535156h8.535156v17.066407h-102.398438v-34.132813h30.597657c4.523437-.015625 8.859375-1.8125 12.066406-5l12.066406-12.070312h13.535157c4.710937 0 8.53125-3.820313 8.53125-8.53125 0-4.714844-3.820313-8.535156-8.53125-8.535156h-8.535157v-17.066407h8.535157c4.710937 0 8.53125-3.820312 8.53125-8.53125 0-4.714843-3.820313-8.535156-8.53125-8.535156h-13.535157l-12.066406-12.066406c-3.207031-3.191407-7.542969-4.988281-12.066406-5h-30.597657v-17.066407zm-375.46875-17.066406h85.335937v153.601563h-85.335937zm-22.066407 119.46875-12.066406-12.070312v-61.199219l12.066406-12.066406h5v85.335937zm465.800782 247.464844h-469.332032v-25.601562h1.867188c7.832031.011718 14.664062-5.324219 16.554688-12.925782l6.648437-26.589844c.351563-1.371093.527344-2.78125.527344-4.199218v-16.015625h79.558593l14.917969 37.304687.046875.066406c.371094.839844.878906 1.613282 1.5 2.289063.128906.148437.191406.351563.328125.484375 1.707031 1.386719 3.777344 2.257812 5.964844 2.503906l.085937.015625h213.332032c.332031-.042969.65625-.109375.980468-.195312.578126-.054688 1.152344-.167969 1.707032-.34375.507812-.175781.996094-.40625 1.460937-.679688.996094-.519531 1.855469-1.269531 2.503907-2.1875.238281-.230469.460937-.472656.667968-.730469l23.113282-38.527343h71.964843v16.015625c-.003906 1.394531.167969 2.785156.511719 4.136718l6.65625 26.65625c1.890625 7.605469 8.730469 12.9375 16.566406 12.921876h1.867188zm0 0"/><path d="m307.199219 221.867188c14.140625 0 25.601562-11.460938 25.601562-25.601563 0-14.136719-11.460937-25.597656-25.601562-25.597656-14.136719 0-25.597657 11.460937-25.597657 25.597656.015626 14.132813 11.464844 25.585937 25.597657 25.601563zm0-34.132813c4.714843 0 8.535156 3.820313 8.535156 8.53125 0 4.714844-3.820313 8.535156-8.535156 8.535156-4.710938 0-8.53125-3.820312-8.53125-8.535156.003906-4.710937 3.820312-8.527344 8.53125-8.53125zm0 0"/><path d="m93.867188 145.066406c14.136718 0 25.597656-11.460937 25.597656-25.601562 0-14.136719-11.460938-25.597656-25.597656-25.597656-14.140626 0-25.601563 11.460937-25.601563 25.597656.015625 14.132812 11.46875 25.585937 25.601563 25.601562zm0-34.132812c4.710937 0 8.53125 3.820312 8.53125 8.53125 0 4.714844-3.820313 8.535156-8.53125 8.535156-4.714844 0-8.535157-3.820312-8.535157-8.535156.003907-4.710938 3.824219-8.527344 8.535157-8.53125zm0 0"/><path d="m85.332031 51.199219h17.066407c4.714843 0 8.535156-3.820313 8.535156-8.53125 0-4.714844-3.820313-8.535157-8.535156-8.535157h-17.066407c-4.710937 0-8.53125 3.820313-8.53125 8.535157 0 4.710937 3.820313 8.53125 8.53125 8.53125zm0 0"/><path d="m85.332031 76.800781h17.066407c4.714843 0 8.535156-3.820312 8.535156-8.535156 0-4.710937-3.820313-8.53125-8.535156-8.53125h-17.066407c-4.710937 0-8.53125 3.820313-8.53125 8.53125 0 4.714844 3.820313 8.535156 8.53125 8.535156zm0 0"/></svg>